<svg xmlns="http://www.w3.org/2000/svg" xmlns:xlink="http://www.w3.org/1999/xlink" data-name="Layer 1" viewBox="0 0 566.01 593.14" id="checklist"><defs><linearGradient id="a" x1="442.3" x2="434.37" y1="-216.93" y2="439.6" gradientUnits="userSpaceOnUse"><stop offset="0"></stop><stop offset=".98" stop-opacity="0"></stop></linearGradient><linearGradient id="c" x1="342.32" x2="257.43" y1="227.14" y2="239.27" xlink:href="#a"></linearGradient><linearGradient id="b" x1="318.06" x2="369.63" y1="119.85" y2="119.85" gradientUnits="userSpaceOnUse"><stop offset="0" stop-color="#ecc4d7"></stop><stop offset=".42" stop-color="#efd4d1"></stop><stop offset="1" stop-color="#f2eac9"></stop></linearGradient><linearGradient id="d" x1="403.35" x2="320.74" y1="255.72" y2="239.05" xlink:href="#a"></linearGradient><linearGradient id="e" x1="403.21" x2="405.8" y1="349.11" y2="174.26" xlink:href="#a"></linearGradient><linearGradient id="f" x1="474.35" x2="522.54" y1="177.97" y2="177.97" xlink:href="#b"></linearGradient><linearGradient id="g" x1="335.85" x2="375.27" y1="547.44" y2="547.44" xlink:href="#b"></linearGradient><linearGradient id="h" x1="193.02" x2="215.94" y1="513.6" y2="513.6" xlink:href="#b"></linearGradient><linearGradient id="i" x1="410.81" x2="314.32" y1="138.22" y2="158.29" xlink:href="#a"></linearGradient></defs><path fill="#68e1fd" d="M201.91 105.58c-43.7 26.5-98.81 32.7-137.77 65.77-13.76 11.65-24.86 26.26-33.81 41.93-29.1 51-35.06 114.57-15.95 170.06s63 101.92 117.31 124.15c26 10.63 53.83 15.87 81.66 19.52a772.47 772.47 0 0 0 154.79 4.66c32.64-2.29 67.1-7.49 92.21-28.46 16.73-14 27.64-33.7 36.06-53.81a317.69 317.69 0 0 0 20.35-173.14c-5.8-35.37-17.82-70-37.59-99.88-33.27-50.3-85.59-83.3-139.29-108.38-21.07-9.84-48-27-71.47-17.06-24.69 10.44-42.97 40.37-66.5 54.64Z" opacity=".18"></path><path fill="#25233a" d="M17.39 529.83c-4.61.88-9.45 1.9-12.94 5-6.67 6-5.31 17.45.55 24.22s14.77 9.92 23.34 12.5c71.24 21.45 146.91 21.61 221.3 21.58 22.73 0 46.05-.12 67.27-8.24 14.72-5.63 27.78-14.89 42.28-21 54.47-23.1 118.18.87 175.77-12.72 6.75-1.59 14.26-4.49 16.61-11 4.75-13.2-14.46-21.22-28.47-21.91a1705.17 1705.17 0 0 0-184.51.87c-49.09 2.89-93.81-11.68-143.08-9.69a1211.35 1211.35 0 0 0-178.12 20.39Z" opacity=".12"></path><path fill="#68e1fd" d="M297.67 518.15h-16.29a21 21 0 0 1-21-21V21.05a21 21 0 0 1 21-21h16.29a21 21 0 0 0-21 21.05v476.01a21 21 0 0 0 21 21.04Z"></path><path fill="url(#a)" d="M455.09 518.15H438.8a21 21 0 0 1-21-21V21.05a21 21 0 0 1 21-21h16.29a21 21 0 0 0-21 21.05v476.01a21 21 0 0 0 21 21.04Z" transform="translate(-157.42)" style="isolation:isolate"></path><path fill="#68e1fd" d="M144.41 163.91s-46.32 60.14-41.61 87.19 16.1 54.48 16.1 54.48l31.09-132.76Z"></path><path fill="url(#c)" d="M301.83 163.91s-46.32 60.14-41.61 87.19 16.1 54.48 16.1 54.48l31.09-132.76Z" transform="translate(-157.42)" style="isolation:isolate"></path><rect width="289.39" height="518.15" x="276.62" fill="#68e1fd" rx="21.05"></rect><path fill="#fff" d="M581.7 58.39H457a7.39 7.39 0 0 1-7.36-7.39 7.39 7.39 0 0 1 7.36-7.38h124.7a7.39 7.39 0 0 1 7.39 7.38 7.39 7.39 0 0 1-7.39 7.39ZM581.7 133.66H457a7.39 7.39 0 0 1-7.39-7.39 7.39 7.39 0 0 1 7.39-7.38h124.7a7.39 7.39 0 0 1 7.39 7.38 7.39 7.39 0 0 1-7.39 7.39ZM581.7 208.93H457a7.39 7.39 0 0 1-7.39-7.38 7.39 7.39 0 0 1 7.39-7.39h124.7a7.39 7.39 0 0 1 7.39 7.39 7.39 7.39 0 0 1-7.39 7.38ZM581.7 284.2H457a7.39 7.39 0 0 1-7.39-7.38 7.39 7.39 0 0 1 7.39-7.39h124.7a7.39 7.39 0 0 1 7.39 7.39 7.39 7.39 0 0 1-7.39 7.38ZM581.7 359.47H457a7.39 7.39 0 0 1-7.39-7.38 7.39 7.39 0 0 1 7.39-7.39h124.7a7.39 7.39 0 0 1 7.39 7.39 7.39 7.39 0 0 1-7.39 7.38ZM581.7 434.74H457a7.38 7.38 0 0 1-7.39-7.38A7.39 7.39 0 0 1 457 420h124.7a7.39 7.39 0 0 1 7.39 7.39 7.38 7.38 0 0 1-7.39 7.35Z" opacity=".18" transform="translate(-157.42)" style="isolation:isolate"></path><path fill="#25233a" d="M122.82 322.42c8.77-16.85 51.44 19.46 56.83 37.47s-29.66 81.38-47.86 100.93-51.9 37.07-73.48 43.14c0 0-7.59-10.13-6.06-14.29s46.17-36.72 50.22-56.38 11.59-94.01 20.35-110.87Z"></path><path fill="#222a72" d="M328.77 165.57s-5.39-15.66-4.49-17.38 6.14-5.69 8.61-3.37 7.49 16.7 7.49 16.7l52.64-18s5.88-.91 5.26 5.52S341.02 178 341.02 178s-4.61 4.72-12.25-12.43Z"></path><path fill="url(#b)" d="M356 76.76s16.42 28.66 13.17 46-12.54 13.48-15.83 22.47a75.27 75.27 0 0 0-3.95 18.21s-9.54 7.74-26.61-13.33a46.45 46.45 0 0 0-2.65-25.48c-5.41-12.91-2.48-59.76 35.87-47.87Z" transform="translate(-157.42)"></path><path fill="#3f3d56" d="M152.14 62c-25.14 24-28.29 8.52-46.66 12.88-13.83 3.28-20.65 15.22-16.09 40.21s-16.49 12.45-27.81 35.45c-20.31 41.15 16.61 47 45.07 45.81s25.83-53.24 46.84-55.25 25.31 1.13 33.83-25.86c5-15.88 1.44-22.81 8.24-28.2 8.68-6.88 11.71-21.78 2.65-28.14-10.02-6.99-30.07-12.2-46.07 3.1Z"></path><path fill="#68e1fd" d="M150.36 160s-2.1-9.59 4.8-12.88 26.63-4.88 29.36 0 5.75 16 8.69 16.18 15 19.45 15 19.45 2.52 53.31 2.66 74c.23 32.88-19.48 84.22-46.68 80.07s-47.05-11.74-46.57-25.85 23.43-120.35 21.79-132.32c-1.76-12.93 10.49-19.15 10.95-18.65Z"></path><path fill="url(#d)" d="M368.3 256.72c.23 32.88-19.48 84.22-46.68 80.07s-47.05-11.74-46.57-25.85 23.43-120.35 21.79-132.32c-1.77-12.9 10.48-19.12 10.94-18.67 0 0-2.1-9.59 4.8-12.88s26.63-4.88 29.36 0c2.53 4.54 5.33 14.42 8.07 16a1.5 1.5 0 0 0 .62.2c2.94.23 15 19.45 15 19.45s2.53 53.28 2.67 74Z" transform="translate(-157.42)" style="isolation:isolate"></path><path fill="#68e1fd" d="M174.79 176.58s10.48-20.67 25.31-8.09 33.08 59 45.77 59.28 64.78-41.76 69.39-38 12.45 13.29 8.19 21.38-62.57 59.16-87.69 54.38-78.63-39.07-60.97-88.95Z"></path><path fill="url(#e)" d="M332.21 176.58s10.48-20.67 25.31-8.09 33.08 59 45.77 59.28 64.78-41.76 69.39-38 12.45 13.29 8.19 21.38-62.57 59.16-87.69 54.38-78.63-39.07-60.97-88.95Z" transform="translate(-157.42)" style="isolation:isolate"></path><path fill="url(#f)" d="M474.35 191.3S485 171.57 485.82 168s3.52 1.8 3.52 1.8 9.06-7.19 10.63-10.34 14.72-8 20.68-7.23-4 4.44-4 4.44-4.72 2.16-7.2 14-5 22-15.91 27-11.65 6.05-11.65 6.05-2.61-10.42-7.54-12.42Z" transform="translate(-157.42)"></path><path fill="#3f3d56" d="M122.82 322.42s-13.05 29.87 11.22 57.73 42.36 49.66 37.24 92.8 7.15 65.39 7.15 65.39h14.31s22.2-79.94 18.37-113.79-20.53-102.05-20.53-102.05-32.71-15.58-67.76-.08Z"></path><path fill="url(#g)" d="M335.85 538.34v18.2h39.42s-23.6-4.27-24.27-9.1-.84-9.1-.84-9.1Z" transform="translate(-157.42)"></path><path fill="#091240" d="M181.36 551c-1.79-.38-4-.82-5.14.61a4.07 4.07 0 0 0-.68 1.79 21.66 21.66 0 0 0-.38 5.39c.07 1.34.38 2.86 1.54 3.53a4.53 4.53 0 0 0 2.34.38l40.88-.75c1.56 0 3.36-.18 4.24-1.46a3.37 3.37 0 0 0 .51-2.13 7.11 7.11 0 0 0-3-5.11 17.85 17.85 0 0 0-5.56-2.53c-5-1.54-13.2-4.42-18.18-2.31-5.5 2.29-10.55 3.83-16.57 2.59Z"></path><path fill="url(#h)" d="M209.26 492.4 193 500.68l19.73 34.12s-8.12-22.56-4.27-25.57 7.46-5.28 7.46-5.28Z" transform="translate(-157.42)"></path><path fill="#091240" d="M41.87 500.43c-.57-1.74-1.29-3.88-3.1-4.14a4 4 0 0 0-1.89.3 21.66 21.66 0 0 0-4.86 2.37c-1.12.73-2.28 1.76-2.28 3.1a4.54 4.54 0 0 0 .85 2.22q10.55 17.51 21.11 35c.8 1.33 1.84 2.82 3.39 2.94a3.45 3.45 0 0 0 2.1-.62 7.19 7.19 0 0 0 2.91-5.19 17.92 17.92 0 0 0-.6-6.08c-1.19-5.13-2.79-13.64-7.1-16.89-4.74-3.58-8.6-7.17-10.53-13.01Z"></path><rect width="53.75" height="47.01" x="462.73" y="24.41" fill="#fff" opacity=".18" rx="5.76" style="isolation:isolate"></rect><rect width="53.75" height="47.01" x="462.73" y="106.11" fill="#fff" opacity=".18" rx="5.76" style="isolation:isolate"></rect><rect width="53.75" height="47.01" x="462.73" y="180.25" fill="#fff" opacity=".18" rx="5.76" style="isolation:isolate"></rect><rect width="53.75" height="47.01" x="462.73" y="326.92" fill="#fff" opacity=".18" rx="5.76" style="isolation:isolate"></rect><rect width="53.75" height="47.01" x="462.73" y="253.31" fill="#fff" opacity=".18" rx="5.76" style="isolation:isolate"></rect><rect width="53.75" height="47.01" x="462.73" y="403.85" fill="#fff" opacity=".18" rx="5.76" style="isolation:isolate"></rect><path fill="#222a72" d="m466.5 41.05 9.66 16.23c3 5 8.27 6.1 12.06 2.46l32.71-31.5s3-4.35-.19-7.71-5.91.51-5.91.51l-29 27.84c-1.84 1.68-4.34 1.12-5.76-1.28l-7.7-13c-1.46-2.46-4.13-2.69-5.72-.48a6.69 6.69 0 0 0-.15 6.93ZM466.5 121.31l9.66 16.22c3 5 8.27 6.1 12.06 2.46l32.71-31.5s3-4.34-.19-7.71-5.91.51-5.91.51l-29 27.85c-1.84 1.67-4.34 1.12-5.76-1.28l-7.7-13c-1.46-2.47-4.13-2.69-5.72-.48a6.69 6.69 0 0 0-.15 6.93ZM466.5 274.1l9.66 16.23c3 5 8.27 6.1 12.06 2.46l32.71-31.5s3-4.35-.19-7.71-5.91.51-5.91.51l-29 27.84c-1.84 1.68-4.34 1.12-5.76-1.28l-7.7-13c-1.46-2.46-4.13-2.69-5.72-.48a6.69 6.69 0 0 0-.15 6.93ZM466.5 348.27l9.66 16.22c3 5 8.27 6.1 12.06 2.46l32.71-31.49s3-4.35-.19-7.72-5.91.51-5.91.51l-29 27.85c-1.84 1.67-4.34 1.12-5.76-1.28l-7.7-13c-1.46-2.47-4.13-2.69-5.72-.48a6.69 6.69 0 0 0-.15 6.93ZM466.5 420.5l9.66 16.23c3 5 8.27 6.1 12.06 2.46l32.71-31.5s3-4.35-.19-7.71-5.91.51-5.91.51l-29 27.84c-1.84 1.68-4.34 1.12-5.76-1.28l-7.7-13c-1.46-2.46-4.13-2.69-5.72-.48a6.69 6.69 0 0 0-.15 6.93Z"></path><path fill="url(#i)" d="M350 163.05c-24.89-8.23-42.23-3.1-42.23-3.1s-2.1-9.59 4.8-12.88 26.63-4.88 29.36 0c2.54 4.54 5.34 14.42 8.07 15.98Z" transform="translate(-157.42)" style="isolation:isolate"></path></svg>