<svg xmlns="http://www.w3.org/2000/svg" version="1.1" xmlns:xlink="http://www.w3.org/1999/xlink" xmlns:svgjs="http://svgjs.dev/svgjs" width="1440" height="150" preserveAspectRatio="none" viewBox="0 0 1440 150"><g mask="url(&quot;#SvgjsMask1250&quot;)" fill="none"><path d="M338.85 170.46L372.63 189.96L372.63 228.96L338.85 248.46L305.08 228.96L305.08 189.96zM406.41 53.46L440.18 72.96L440.18 111.96L406.41 131.46L372.63 111.96L372.63 72.96zM642.84 111.96L676.61 131.46L676.61 170.46L642.84 189.96L609.06 170.46L609.06 131.46zM744.16 53.46L777.94 72.96L777.94 111.96L744.16 131.46L710.39 111.96L710.39 72.96zM777.94 -5.04L811.72 14.46L811.72 53.46L777.94 72.96L744.16 53.46L744.16 14.46zM879.27 53.46L913.04 72.96L913.04 111.96L879.27 131.46L845.49 111.96L845.49 72.96zM845.49 111.96L879.27 131.46L879.27 170.46L845.49 189.96L811.72 170.46L811.72 131.46zM1115.7 111.96L1149.48 131.46L1149.48 170.46L1115.7 189.96L1081.92 170.46L1081.92 131.46zM1149.48 170.46L1183.25 189.96L1183.25 228.96L1149.48 248.46L1115.7 228.96L1115.7 189.96zM1352.13 170.46L1385.91 189.96L1385.91 228.96L1352.13 248.46L1318.36 228.96L1318.36 189.96zM1453.46 111.96L1487.24 131.46L1487.24 170.46L1453.46 189.96L1419.68 170.46L1419.68 131.46z" stroke="rgba(7, 159, 165, 1)" stroke-width="2"></path></g><defs><mask id="SvgjsMask1250"><rect width="1440" height="150" fill="#ffffff"></rect></mask></defs></svg>