<svg xmlns="http://www.w3.org/2000/svg" version="1.1" xmlns:xlink="http://www.w3.org/1999/xlink" xmlns:svgjs="http://svgjs.dev/svgjs" width="1440" height="150" preserveAspectRatio="none" viewBox="0 0 1440 150"><g mask="url(&quot;#SvgjsMask2232&quot;)" fill="none"><path d="M194.51 136.41L226.55 154.91L226.55 191.91L194.51 210.41L162.47 191.91L162.47 154.91zM290.64 -30.09L322.68 -11.59L322.68 25.41L290.64 43.91L258.6 25.41L258.6 -11.59zM354.73 -30.09L386.77 -11.59L386.77 25.41L354.73 43.91L322.68 25.41L322.68 -11.59zM386.77 25.41L418.82 43.91L418.82 80.91L386.77 99.41L354.73 80.91L354.73 43.91zM450.86 25.41L482.9 43.91L482.9 80.91L450.86 99.41L418.82 80.91L418.82 43.91zM611.08 80.91L643.12 99.41L643.12 136.41L611.08 154.91L579.04 136.41L579.04 99.41zM835.39 25.41L867.43 43.91L867.43 80.91L835.39 99.41L803.34 80.91L803.34 43.91zM899.47 25.41L931.52 43.91L931.52 80.91L899.47 99.41L867.43 80.91L867.43 43.91zM931.52 80.91L963.56 99.41L963.56 136.41L931.52 154.91L899.47 136.41L899.47 99.41zM995.61 80.91L1027.65 99.41L1027.65 136.41L995.61 154.91L963.56 136.41L963.56 99.41zM1123.78 -30.09L1155.82 -11.59L1155.82 25.41L1123.78 43.91L1091.74 25.41L1091.74 -11.59zM1316.04 -30.09L1348.09 -11.59L1348.09 25.41L1316.04 43.91L1284 25.41L1284 -11.59zM1412.18 136.41L1444.22 154.91L1444.22 191.91L1412.18 210.41L1380.13 191.91L1380.13 154.91zM1476.26 136.41L1508.31 154.91L1508.31 191.91L1476.26 210.41L1444.22 191.91L1444.22 154.91z" stroke="url(&quot;#SvgjsLinearGradient2233&quot;)" stroke-width="2"></path></g><defs><mask id="SvgjsMask2232"><rect width="1440" height="150" fill="#ffffff"></rect></mask><linearGradient x1="0" y1="75" x2="1440" y2="75" gradientUnits="userSpaceOnUse" id="SvgjsLinearGradient2233"><stop stop-color="rgba(7, 159, 165, 0.25)" offset="0"></stop><stop stop-color="rgba(108, 93, 211, 0.35)" offset="1"></stop></linearGradient></defs></svg>