<svg id="visual" viewBox="0 0 960 540" width="960" height="540" xmlns="http://www.w3.org/2000/svg" xmlns:xlink="http://www.w3.org/1999/xlink" version="1.1"><rect x="0" y="0" width="960" height="540" fill="#d35d5d"></rect><path d="M0 253L26.7 276.5C53.3 300 106.7 347 160 330.2C213.3 313.3 266.7 232.7 320 184.5C373.3 136.3 426.7 120.7 480 162.2C533.3 203.7 586.7 302.3 640 327.7C693.3 353 746.7 305 800 294.5C853.3 284 906.7 311 933.3 324.5L960 338L960 0L933.3 0C906.7 0 853.3 0 800 0C746.7 0 693.3 0 640 0C586.7 0 533.3 0 480 0C426.7 0 373.3 0 320 0C266.7 0 213.3 0 160 0C106.7 0 53.3 0 26.7 0L0 0Z" fill="#FFFFFF" stroke-linecap="round" stroke-linejoin="miter"></path></svg>